<?xml version="1.0" encoding="UTF-8"?>
<svg width="79px" height="78px" viewBox="0 0 79 78" version="1.1" xmlns="http://www.w3.org/2000/svg" xmlns:xlink="http://www.w3.org/1999/xlink">
    <!-- Generator: Sketch 57.1 (83088) - https://sketch.com -->
    <title>→pointer</title>
    <desc>Created with Sketch.</desc>
    <g id="Page-1" stroke="none" stroke-width="1" fill="none" fill-rule="evenodd">
        <g id="t" transform="translate(-2.000000, -3.000000)" fill="#000000" fill-rule="nonzero">
            <path d="M50.4648437,87.7539062 C49.4882764,88.7304736 48.296882,89.21875 46.890625,89.21875 C45.5234307,89.21875 44.3515674,88.7304736 43.375,87.7539062 C42.3984326,86.7773389 41.9101562,85.6054756 41.9101562,84.2382812 C41.9101562,82.7929615 42.3984326,81.6210982 43.375,80.7226562 L77.0664062,47.03125 L-6.01953125,47.03125 C-7.38672559,47.03125 -8.55858887,46.5429736 -9.53515625,45.5664062 C-10.5117236,44.5898389 -11,43.4179756 -11,42.0507812 C-11,40.6445242 -10.5117236,39.4531299 -9.53515625,38.4765625 C-8.55858887,37.5 -7.38672559,37.0117188 -6.01953125,37.0117188 L76.890625,37.0117188 L43.375,3.5546875 C42.3984326,2.57812012 41.9101562,1.38672578 41.9101562,-0.01953125 C41.9101562,-1.38672559 42.3984326,-2.55858887 43.375,-3.53515625 C44.3515674,-4.51172363 45.5234307,-5 46.890625,-5 C48.296882,-5 49.4882764,-4.51172363 50.4648437,-3.53515625 L92.59375,38.59375 C93.5703174,39.5703174 94.0585938,40.7421807 94.0585938,42.109375 C94.0585938,43.4765693 93.5703174,44.6484326 92.59375,45.625 L50.4648437,87.7539062 Z" id="→" transform="translate(41.529297, 42.109375) rotate(-136.000000) translate(-41.529297, -42.109375) "></path>
        </g>
    </g>
</svg>