<?xml version="1.0" encoding="UTF-8"?>
<svg width="720px" height="894px" viewBox="0 0 720 894" version="1.1" xmlns="http://www.w3.org/2000/svg" xmlns:xlink="http://www.w3.org/1999/xlink">
    <!-- Generator: Sketch 57.1 (83088) - https://sketch.com -->
    <title>Mobile@1.5x</title>
    <desc>Created with Sketch.</desc>
    <g id="Mobile" stroke="none" stroke-width="1" fill="none" fill-rule="evenodd">
        <rect fill="#323262" x="0" y="0" width="720" height="894"></rect>
        <g id="bfly" transform="translate(551.000000, -16.000000) rotate(43.000000) translate(-551.000000, 16.000000) translate(497.000000, -58.000000)" fill="#FFFFFF" stroke="#000000" stroke-linecap="round" stroke-linejoin="bevel">
            <g>
                <path d="M47.8884922,23.167052 L53.3473996,23.167052 L109.01311,6.87041433 L97.1481265,38.1058288 L84.3346431,42.294747 L89.6983451,55.0781682 L76.331346,85.2005269 L60.1754045,75.817794 L54.0437923,53.653729 L52.7918357,62.9158092 L47.5929445,68.4800559 L42.1986804,61.4938834 L42.9166529,52.2680261 L34.9563465,72.9716732 L19.5473844,80.1025658 L10.3680004,49.9605349 L16.7085086,36.5822908 L3.72946652,28.6795852 L-1.23942318,-1.69184767 L47.8884922,23.167052 Z M53.3473996,23.167052 L53.4836017,23.167052 L53.216684,23.2053202 L53.3473996,23.167052 Z" id="Path-6" stroke-width="1.9"></path>
                <path d="M46.8477556,23.167052 L54.4244683,23.167052 L54.6732913,48.9232214 L54.6679597,49.0333212 C53.8420964,56.7633125 53.1957512,61.1200185 52.6559926,62.3932515 C52.1072966,63.687567 50.6708345,65.4283871 48.3219484,67.6980049 L47.6338121,68.3629186 L46.9738897,67.6699942 C44.5554317,65.1305914 43.0956346,63.1164255 42.5863984,61.5524596 C42.3106139,60.7054706 42.5189017,56.1075097 43.2056728,46.6594251 L46.8477556,23.167052 Z" id="Path-7" stroke-width="1.9"></path>
            </g>
        </g>
        <g id="bfly" transform="translate(11.000000, 239.500000) rotate(3.000000) translate(-11.000000, -239.500000) translate(-43.000000, 197.500000)" fill="#FFFFFF" stroke="#000000" stroke-linecap="round" stroke-linejoin="bevel">
            <g>
                <path d="M47.8884922,23.167052 L53.3473996,23.167052 L109.01311,6.87041433 L97.1481265,38.1058288 L84.3346431,42.294747 L89.6983451,55.0781682 L76.331346,85.2005269 L60.1754045,75.817794 L54.0437923,53.653729 L52.7918357,62.9158092 L47.5929445,68.4800559 L42.1986804,61.4938834 L42.9166529,52.2680261 L34.9563465,72.9716732 L19.5473844,80.1025658 L10.3680004,49.9605349 L16.7085086,36.5822908 L3.72946652,28.6795852 L-1.23942318,-1.69184767 L47.8884922,23.167052 Z M53.3473996,23.167052 L53.4836017,23.167052 L53.216684,23.2053202 L53.3473996,23.167052 Z" id="Path-6" stroke-width="1.9"></path>
                <path d="M46.8477556,23.167052 L54.4244683,23.167052 L54.6732913,48.9232214 L54.6679597,49.0333212 C53.8420964,56.7633125 53.1957512,61.1200185 52.6559926,62.3932515 C52.1072966,63.687567 50.6708345,65.4283871 48.3219484,67.6980049 L47.6338121,68.3629186 L46.9738897,67.6699942 C44.5554317,65.1305914 43.0956346,63.1164255 42.5863984,61.5524596 C42.3106139,60.7054706 42.5189017,56.1075097 43.2056728,46.6594251 L46.8477556,23.167052 Z" id="Path-7" stroke-width="1.9"></path>
            </g>
        </g>
        <g id="bfly" transform="translate(227.000000, 31.000000) rotate(-42.000000) translate(-227.000000, -31.000000) translate(173.000000, -11.000000)" fill="#FFFFFF" stroke="#000000" stroke-linecap="round" stroke-linejoin="bevel">
            <g>
                <path d="M47.8884922,23.167052 L53.3473996,23.167052 L109.01311,6.87041433 L97.1481265,38.1058288 L84.3346431,42.294747 L89.6983451,55.0781682 L76.331346,85.2005269 L60.1754045,75.817794 L54.0437923,53.653729 L52.7918357,62.9158092 L47.5929445,68.4800559 L42.1986804,61.4938834 L42.9166529,52.2680261 L34.9563465,72.9716732 L19.5473844,80.1025658 L10.3680004,49.9605349 L16.7085086,36.5822908 L3.72946652,28.6795852 L-1.23942318,-1.69184767 L47.8884922,23.167052 Z M53.3473996,23.167052 L53.4836017,23.167052 L53.216684,23.2053202 L53.3473996,23.167052 Z" id="Path-6" stroke-width="1.9"></path>
                <path d="M46.8477556,23.167052 L54.4244683,23.167052 L54.6732913,48.9232214 L54.6679597,49.0333212 C53.8420964,56.7633125 53.1957512,61.1200185 52.6559926,62.3932515 C52.1072966,63.687567 50.6708345,65.4283871 48.3219484,67.6980049 L47.6338121,68.3629186 L46.9738897,67.6699942 C44.5554317,65.1305914 43.0956346,63.1164255 42.5863984,61.5524596 C42.3106139,60.7054706 42.5189017,56.1075097 43.2056728,46.6594251 L46.8477556,23.167052 Z" id="Path-7" stroke-width="1.9"></path>
            </g>
        </g>
        <g id="bfly" transform="translate(285.271716, 272.390465) rotate(-20.000000) translate(-285.271716, -272.390465) translate(229.771716, 229.390465)" fill="#FFFFFF" stroke="#000000" stroke-linecap="round" stroke-linejoin="bevel">
            <g>
                <path d="M49.2116504,23.7412676 L54.83356,23.7412676 L111.99981,7.06995087 L99.8255456,38.9958257 L86.6436807,43.2885349 L92.1618557,56.3893365 L78.4388773,87.1944901 L61.8702323,77.6092274 L55.5360627,54.8013768 L54.2329316,64.4048279 L48.9169954,70.0723778 L43.3977842,62.9519833 L44.1489851,53.3364145 L35.90562,74.6934787 L20.1073893,81.9762873 L10.6837264,51.1516016 L17.2049219,37.4452395 L3.85761057,29.3496796 L-1.24011569,-1.68893861 L49.2116504,23.7412676 Z" id="Path-6" stroke-width="1.9"></path>
                <path d="M48.1721784,23.7412676 L55.9100887,23.7412676 L56.1656059,50.0882429 L56.1602332,50.198765 C55.311757,58.109748 54.6474256,62.5704011 54.0938462,63.8711939 C53.5313729,65.1928858 52.0565945,66.9732402 49.6445661,69.2948707 L48.9578054,69.9558931 L48.2990964,69.2669132 C45.8156134,66.6693019 44.3169397,64.6094794 43.7947822,63.0120215 C43.51262,62.1487911 43.7269011,57.4367917 44.4319933,47.7732783 L48.1721784,23.7412676 Z" id="Path-7" stroke-width="1.9"></path>
            </g>
        </g>
        <g id="bfly" transform="translate(517.905418, 79.590281) rotate(-24.000000) translate(-517.905418, -79.590281) translate(463.905418, 37.590281)" fill="#FFFFFF" stroke="#000000" stroke-linecap="round" stroke-linejoin="bevel">
            <g>
                <path d="M47.8884922,23.167052 L53.3473996,23.167052 L109.01311,6.87041433 L97.1481265,38.1058288 L84.3346431,42.294747 L89.6983451,55.0781682 L76.331346,85.2005269 L60.1754045,75.817794 L54.0437923,53.653729 L52.7918357,62.9158092 L47.5929445,68.4800559 L42.1986804,61.4938834 L42.9166529,52.2680261 L34.9563465,72.9716732 L19.5473844,80.1025658 L10.3680004,49.9605349 L16.7085086,36.5822908 L3.72946652,28.6795852 L-1.23942318,-1.69184767 L47.8884922,23.167052 Z M53.3473996,23.167052 L53.4836017,23.167052 L53.216684,23.2053202 L53.3473996,23.167052 Z" id="Path-6" stroke-width="1.9"></path>
                <path d="M46.8477556,23.167052 L54.4244683,23.167052 L54.6732913,48.9232214 L54.6679597,49.0333212 C53.8420964,56.7633125 53.1957512,61.1200185 52.6559926,62.3932515 C52.1072966,63.687567 50.6708345,65.4283871 48.3219484,67.6980049 L47.6338121,68.3629186 L46.9738897,67.6699942 C44.5554317,65.1305914 43.0956346,63.1164255 42.5863984,61.5524596 C42.3106139,60.7054706 42.5189017,56.1075097 43.2056728,46.6594251 L46.8477556,23.167052 Z" id="Path-7" stroke-width="1.9"></path>
            </g>
        </g>
        <g id="bfly" transform="translate(636.795794, 295.043666) rotate(-36.000000) translate(-636.795794, -295.043666) translate(584.295794, 254.043666)" fill="#FFFFFF" stroke="#000000" stroke-linecap="round" stroke-linejoin="bevel">
            <g>
                <path d="M46.5653777,22.5928365 L51.8612106,22.5928365 L106.026311,6.670792 L94.4707551,37.215784 L82.0255193,41.3009228 L87.234806,53.7669981 L74.2238444,83.2067045 L58.4805412,74.0262968 L52.5515238,52.5070792 L51.3507549,61.4267284 L46.2688881,66.8879266 L40.9995848,60.0357379 L41.6843277,51.2009632 L34.0071202,71.2498091 L18.9873495,78.2289639 L10.0522967,48.7694808 L16.2121769,35.7193057 L3.60130006,28.0094283 L-1.23869781,-1.69492623 L46.5653777,22.5928365 Z" id="Path-6" stroke-width="1.9"></path>
                <path d="M45.5233089,22.5928365 L52.9388497,22.5928365 L53.1809768,47.7582016 L53.1756881,47.8678584 C52.3724426,55.4168361 51.7440836,59.6695931 51.2181631,60.9152473 C50.6832607,62.1821752 49.2851253,63.8834638 46.9993981,66.1010687 L46.309816,66.770099 L45.648619,66.0730025 C43.2952052,63.5918107 41.8742986,61.623302 41.3779991,60.0928462 C41.1086131,59.2621312 41.3109109,54.778174 41.9793484,45.5455989 L45.5233089,22.5928365 Z" id="Path-7" stroke-width="1.9"></path>
            </g>
        </g>
        <g id="bfly" transform="translate(245.452544, 373.653582) rotate(-3.000000) translate(-245.452544, -373.653582) translate(185.952544, 327.653582)" fill="#FFFFFF" stroke="#000000" stroke-linecap="round" stroke-linejoin="bevel">
            <g>
                <path d="M52.7417221,25.4639141 L58.7955883,25.4639141 L119.959978,7.66496985 L106.967334,41.6637262 L92.7972812,46.2683217 L98.7298888,60.3227576 L84.0602183,93.1822426 L66.3882424,82.9806604 L59.5155442,58.2868938 L58.0765277,68.8689578 L52.4475629,74.8573401 L46.5957728,67.324111 L47.4355355,56.5980356 L38.4390079,79.8563012 L21.5994589,87.6024582 L11.5266994,54.7254135 L18.5323547,40.0324588 L4.19835067,31.3571284 L-1.24050246,-1.68732648 L52.7417221,25.4639141 Z" id="Path-6" stroke-width="1.9"></path>
                <path d="M51.7029533,25.4639141 L59.8718173,25.4639141 L60.145112,53.5833944 L60.1397164,53.6941521 C59.2311609,62.1470885 58.5188763,66.9194422 57.9292122,68.302048 C57.3306788,69.7054498 55.7540883,71.6046204 53.1743353,74.0823518 L52.4883408,74.7412172 L51.830308,74.0544241 C49.174203,71.2822303 47.5723778,69.085366 47.0164309,67.388191 C46.7182165,66.4778128 46.9486254,61.4220592 47.702001,51.116183 L51.7029533,25.4639141 Z" id="Path-7" stroke-width="1.9"></path>
            </g>
        </g>
    </g>
</svg>